<mxfile host="Electron" modified="2023-10-28T20:11:04.954Z" agent="Mozilla/5.0 (Macintosh; Intel Mac OS X 10_15_7) AppleWebKit/537.36 (KHTML, like Gecko) draw.io/22.0.3 Chrome/114.0.5735.289 Electron/25.8.4 Safari/537.36" etag="rblFeQTv8APTqZ14YpEg" version="22.0.3" type="device">
  <diagram name="Pagina-1" id="OkQLn5V6INbRSrIhByuq">
    <mxGraphModel dx="897" dy="863" grid="1" gridSize="10" guides="1" tooltips="1" connect="1" arrows="1" fold="1" page="1" pageScale="1" pageWidth="827" pageHeight="1169" math="0" shadow="0">
      <root>
        <mxCell id="0" />
        <mxCell id="1" parent="0" />
        <mxCell id="Hpll_JwCEoeV5l-tg1cF-4" value="InterfacciaLogin" style="shape=umlFrame;whiteSpace=wrap;html=1;pointerEvents=0;width=150;height=30;fillColor=#FF9933;strokeColor=#FF9933;strokeWidth=2;fontStyle=1;fontColor=#FFFFFF;" parent="1" vertex="1">
          <mxGeometry x="264" y="185" width="300" height="230" as="geometry" />
        </mxCell>
        <mxCell id="Hpll_JwCEoeV5l-tg1cF-7" value="" style="shape=folder;fontStyle=1;spacingTop=10;tabWidth=72;tabHeight=25;tabPosition=left;html=1;whiteSpace=wrap;strokeColor=#FF9933;" parent="1" vertex="1">
          <mxGeometry x="347.75" y="245" width="135" height="80" as="geometry" />
        </mxCell>
        <mxCell id="Hpll_JwCEoeV5l-tg1cF-8" value="ViewLogin" style="text;html=1;align=center;verticalAlign=middle;resizable=0;points=[];autosize=1;strokeColor=none;fillColor=none;fontSize=11;fontStyle=1;fontColor=#FF9933;" parent="1" vertex="1">
          <mxGeometry x="342.75" y="245" width="80" height="30" as="geometry" />
        </mxCell>
        <mxCell id="Hpll_JwCEoeV5l-tg1cF-11" value="GestioneProprietario" style="shape=umlFrame;whiteSpace=wrap;html=1;pointerEvents=0;width=148;height=30;fillColor=#82b366;strokeColor=#82b366;strokeWidth=2;fontStyle=1;fontColor=#FFFFFF;" parent="1" vertex="1">
          <mxGeometry x="229" y="505" width="370" height="210" as="geometry" />
        </mxCell>
        <mxCell id="Hpll_JwCEoeV5l-tg1cF-12" value="&lt;p style=&quot;margin:0px;margin-top:4px;text-align:center;&quot;&gt;&lt;b&gt;LoginController&lt;/b&gt;&lt;/p&gt;&lt;hr size=&quot;1&quot;&gt;&lt;p style=&quot;margin:0px;margin-left:4px;&quot;&gt;+ verificaCredenziali(username, password)&lt;/p&gt;" style="verticalAlign=top;align=left;overflow=fill;fontSize=12;fontFamily=Helvetica;html=1;whiteSpace=wrap;" parent="1" vertex="1">
          <mxGeometry x="281.5" y="565" width="267.5" height="80" as="geometry" />
        </mxCell>
        <mxCell id="Hpll_JwCEoeV5l-tg1cF-13" value="Use" style="endArrow=open;endSize=12;dashed=1;html=1;rounded=0;exitX=0.5;exitY=1;exitDx=0;exitDy=0;exitPerimeter=0;entryX=0.5;entryY=0;entryDx=0;entryDy=0;" parent="1" source="Hpll_JwCEoeV5l-tg1cF-7" target="Hpll_JwCEoeV5l-tg1cF-12" edge="1">
          <mxGeometry width="160" relative="1" as="geometry">
            <mxPoint x="349" y="555" as="sourcePoint" />
            <mxPoint x="509" y="555" as="targetPoint" />
            <mxPoint as="offset" />
          </mxGeometry>
        </mxCell>
        <mxCell id="Hpll_JwCEoeV5l-tg1cF-16" value="Log" style="shape=umlFrame;whiteSpace=wrap;html=1;pointerEvents=0;width=78;height=30;fillColor=#82b366;strokeColor=#82b366;strokeWidth=2;fontStyle=1;fontColor=#FFFFFF;" parent="1" vertex="1">
          <mxGeometry x="296.5" y="805" width="237.5" height="180" as="geometry" />
        </mxCell>
        <mxCell id="Hpll_JwCEoeV5l-tg1cF-17" value="&lt;p style=&quot;margin:0px;margin-top:4px;text-align:center;&quot;&gt;&lt;b&gt;Logger&lt;/b&gt;&lt;/p&gt;&lt;hr size=&quot;1&quot;&gt;&lt;p style=&quot;margin:0px;margin-left:4px;&quot;&gt;+ aggiungiVoce(voce)&lt;/p&gt;" style="verticalAlign=top;align=left;overflow=fill;fontSize=12;fontFamily=Helvetica;html=1;whiteSpace=wrap;" parent="1" vertex="1">
          <mxGeometry x="336.5" y="860" width="157.5" height="70" as="geometry" />
        </mxCell>
        <mxCell id="Hpll_JwCEoeV5l-tg1cF-22" value="Use" style="endArrow=open;endSize=12;dashed=1;html=1;rounded=0;exitX=0.5;exitY=1;exitDx=0;exitDy=0;entryX=0.5;entryY=0;entryDx=0;entryDy=0;" parent="1" source="Hpll_JwCEoeV5l-tg1cF-12" target="Hpll_JwCEoeV5l-tg1cF-17" edge="1">
          <mxGeometry x="0.2093" width="160" relative="1" as="geometry">
            <mxPoint x="864" y="668" as="sourcePoint" />
            <mxPoint x="952" y="975" as="targetPoint" />
            <mxPoint as="offset" />
          </mxGeometry>
        </mxCell>
      </root>
    </mxGraphModel>
  </diagram>
</mxfile>
